<svg xmlns="http://www.w3.org/2000/svg" viewBox="0 0 256 256" width="256" height="256">
  <defs>
    <linearGradient id="bg" x1="0" y1="0" x2="1" y2="1">
      <stop offset="0%" stop-color="#1a1a2e"/>
      <stop offset="100%" stop-color="#0f0f1a"/>
    </linearGradient>
    <linearGradient id="glow" x1="0.5" y1="0" x2="0.5" y2="1">
      <stop offset="0%" stop-color="#6366f1"/>
      <stop offset="100%" stop-color="#4f46e5"/>
    </linearGradient>
    <linearGradient id="building1" x1="0.5" y1="0" x2="0.5" y2="1">
      <stop offset="0%" stop-color="#818cf8"/>
      <stop offset="100%" stop-color="#6366f1"/>
    </linearGradient>
    <linearGradient id="building2" x1="0.5" y1="0" x2="0.5" y2="1">
      <stop offset="0%" stop-color="#a5b4fc"/>
      <stop offset="100%" stop-color="#818cf8"/>
    </linearGradient>
    <linearGradient id="building3" x1="0.5" y1="0" x2="0.5" y2="1">
      <stop offset="0%" stop-color="#c7d2fe"/>
      <stop offset="100%" stop-color="#a5b4fc"/>
    </linearGradient>
  </defs>

  <!-- Background rounded square -->
  <rect width="256" height="256" rx="48" fill="url(#bg)"/>

  <!-- Subtle grid on ground -->
  <g opacity="0.12" stroke="#6366f1" stroke-width="0.8">
    <line x1="40" y1="200" x2="216" y2="200"/>
    <line x1="50" y1="210" x2="206" y2="210"/>
    <line x1="60" y1="220" x2="196" y2="220"/>
    <line x1="70" y1="200" x2="55" y2="220"/>
    <line x1="110" y1="200" x2="95" y2="220"/>
    <line x1="150" y1="200" x2="135" y2="220"/>
    <line x1="190" y1="200" x2="175" y2="220"/>
  </g>

  <!-- Ground reflection glow -->
  <ellipse cx="128" cy="202" rx="70" ry="6" fill="#6366f1" opacity="0.15"/>

  <!-- Building 1 — tall left -->
  <rect x="52" y="80" width="36" height="120" rx="3" fill="url(#building1)" opacity="0.95"/>
  <!-- Windows -->
  <g fill="#c7d2fe" opacity="0.6">
    <rect x="58" y="90" width="6" height="5" rx="1"/>
    <rect x="68" y="90" width="6" height="5" rx="1"/>
    <rect x="78" y="90" width="6" height="5" rx="1"/>
    <rect x="58" y="102" width="6" height="5" rx="1"/>
    <rect x="68" y="102" width="6" height="5" rx="1"/>
    <rect x="78" y="102" width="6" height="5" rx="1"/>
    <rect x="58" y="114" width="6" height="5" rx="1"/>
    <rect x="68" y="114" width="6" height="5" rx="1"/>
    <rect x="78" y="114" width="6" height="5" rx="1"/>
    <rect x="58" y="126" width="6" height="5" rx="1"/>
    <rect x="68" y="126" width="6" height="5" rx="1"/>
    <rect x="78" y="126" width="6" height="5" rx="1"/>
    <rect x="58" y="138" width="6" height="5" rx="1"/>
    <rect x="68" y="138" width="6" height="5" rx="1"/>
    <rect x="78" y="138" width="6" height="5" rx="1"/>
    <rect x="58" y="150" width="6" height="5" rx="1"/>
    <rect x="68" y="150" width="6" height="5" rx="1"/>
    <rect x="78" y="150" width="6" height="5" rx="1"/>
    <rect x="58" y="162" width="6" height="5" rx="1"/>
    <rect x="68" y="162" width="6" height="5" rx="1"/>
    <rect x="78" y="162" width="6" height="5" rx="1"/>
    <rect x="58" y="174" width="6" height="5" rx="1"/>
    <rect x="68" y="174" width="6" height="5" rx="1"/>
    <rect x="78" y="174" width="6" height="5" rx="1"/>
  </g>

  <!-- Building 2 — tallest center -->
  <rect x="98" y="48" width="40" height="152" rx="3" fill="url(#building2)" opacity="0.95"/>
  <!-- Antenna -->
  <line x1="118" y1="48" x2="118" y2="32" stroke="#a5b4fc" stroke-width="2" stroke-linecap="round"/>
  <circle cx="118" cy="30" r="3" fill="#f87171" opacity="0.9"/>
  <!-- Windows -->
  <g fill="#e0e7ff" opacity="0.55">
    <rect x="105" y="58" width="7" height="5" rx="1"/>
    <rect x="116" y="58" width="7" height="5" rx="1"/>
    <rect x="127" y="58" width="7" height="5" rx="1"/>
    <rect x="105" y="70" width="7" height="5" rx="1"/>
    <rect x="116" y="70" width="7" height="5" rx="1"/>
    <rect x="127" y="70" width="7" height="5" rx="1"/>
    <rect x="105" y="82" width="7" height="5" rx="1"/>
    <rect x="116" y="82" width="7" height="5" rx="1"/>
    <rect x="127" y="82" width="7" height="5" rx="1"/>
    <rect x="105" y="94" width="7" height="5" rx="1"/>
    <rect x="116" y="94" width="7" height="5" rx="1"/>
    <rect x="127" y="94" width="7" height="5" rx="1"/>
    <rect x="105" y="106" width="7" height="5" rx="1"/>
    <rect x="116" y="106" width="7" height="5" rx="1"/>
    <rect x="127" y="106" width="7" height="5" rx="1"/>
    <rect x="105" y="118" width="7" height="5" rx="1"/>
    <rect x="116" y="118" width="7" height="5" rx="1"/>
    <rect x="127" y="118" width="7" height="5" rx="1"/>
    <rect x="105" y="130" width="7" height="5" rx="1"/>
    <rect x="116" y="130" width="7" height="5" rx="1"/>
    <rect x="127" y="130" width="7" height="5" rx="1"/>
    <rect x="105" y="142" width="7" height="5" rx="1"/>
    <rect x="116" y="142" width="7" height="5" rx="1"/>
    <rect x="127" y="142" width="7" height="5" rx="1"/>
    <rect x="105" y="154" width="7" height="5" rx="1"/>
    <rect x="116" y="154" width="7" height="5" rx="1"/>
    <rect x="127" y="154" width="7" height="5" rx="1"/>
    <rect x="105" y="166" width="7" height="5" rx="1"/>
    <rect x="116" y="166" width="7" height="5" rx="1"/>
    <rect x="127" y="166" width="7" height="5" rx="1"/>
    <rect x="105" y="178" width="7" height="5" rx="1"/>
    <rect x="116" y="178" width="7" height="5" rx="1"/>
    <rect x="127" y="178" width="7" height="5" rx="1"/>
  </g>

  <!-- Building 3 — medium right -->
  <rect x="148" y="108" width="34" height="92" rx="3" fill="url(#building3)" opacity="0.9"/>
  <!-- Windows -->
  <g fill="#e0e7ff" opacity="0.5">
    <rect x="154" y="116" width="6" height="5" rx="1"/>
    <rect x="163" y="116" width="6" height="5" rx="1"/>
    <rect x="172" y="116" width="6" height="5" rx="1"/>
    <rect x="154" y="128" width="6" height="5" rx="1"/>
    <rect x="163" y="128" width="6" height="5" rx="1"/>
    <rect x="172" y="128" width="6" height="5" rx="1"/>
    <rect x="154" y="140" width="6" height="5" rx="1"/>
    <rect x="163" y="140" width="6" height="5" rx="1"/>
    <rect x="172" y="140" width="6" height="5" rx="1"/>
    <rect x="154" y="152" width="6" height="5" rx="1"/>
    <rect x="163" y="152" width="6" height="5" rx="1"/>
    <rect x="172" y="152" width="6" height="5" rx="1"/>
    <rect x="154" y="164" width="6" height="5" rx="1"/>
    <rect x="163" y="164" width="6" height="5" rx="1"/>
    <rect x="172" y="164" width="6" height="5" rx="1"/>
    <rect x="154" y="176" width="6" height="5" rx="1"/>
    <rect x="163" y="176" width="6" height="5" rx="1"/>
    <rect x="172" y="176" width="6" height="5" rx="1"/>
  </g>

  <!-- Building 4 — small right -->
  <rect x="190" y="148" width="26" height="52" rx="3" fill="url(#building1)" opacity="0.85"/>
  <g fill="#c7d2fe" opacity="0.5">
    <rect x="196" y="156" width="5" height="4" rx="1"/>
    <rect x="205" y="156" width="5" height="4" rx="1"/>
    <rect x="196" y="166" width="5" height="4" rx="1"/>
    <rect x="205" y="166" width="5" height="4" rx="1"/>
    <rect x="196" y="176" width="5" height="4" rx="1"/>
    <rect x="205" y="176" width="5" height="4" rx="1"/>
    <rect x="196" y="186" width="5" height="4" rx="1"/>
    <rect x="205" y="186" width="5" height="4" rx="1"/>
  </g>

  <!-- Road -->
  <rect x="40" y="196" width="180" height="8" rx="2" fill="#2d2d4e" opacity="0.8"/>
  <g stroke="#6366f1" stroke-width="1" stroke-dasharray="6 4" opacity="0.35">
    <line x1="45" y1="200" x2="215" y2="200"/>
  </g>

  <!-- Accent glow behind skyline -->
  <ellipse cx="118" cy="200" rx="90" ry="30" fill="#6366f1" opacity="0.06"/>
</svg>
